# xmcd
#
# Track frame offsets: 
#        150
#        22167
#        45750
#        66650
#        88852
#        110437
#        132642
#        153255
#        175585
#
# Disc length: 2606 seconds
#
# Revision: 1
# Processed by: cddbd v1.5.2PL0 Copyright (c) Steve Scherf et al.
# Submitted via: ExactAudioCopy v0.99pb5
#
DISCID=760a2c09
DTITLE=Salsa - Todo A Su Tiempo
DYEAR=1996
DGENRE=Salsa
TTITLE0=Se Me Sigue Olvidando
TTITLE1=Te Conozco Bien
TTITLE2=Hasta Ayer
TTITLE3=Nadie Como Ella
TTITLE4=Te Amare
TTITLE5=Llegaste A Mi
TTITLE6=Y Sigues Siendo Tu
TTITLE7=Por Amor Se Da Todo
TTITLE8=Vieja Mesa
EXTD=YEAR: 1999
EXTT0=
EXTT1=
EXTT2=
EXTT3=
EXTT4=
EXTT5=
EXTT6=
EXTT7=
EXTT8=
PLAYORDER=
